<svg id="_0477_data_storage_1" xmlns="http://www.w3.org/2000/svg" viewBox="0 0 500 500" data-imageid="data-storage-1-73" imageName="Data Storage 1" class="illustrations_image" style="width: 188px;"><defs><style>.cls-1_data-storage-1-73,.cls-2_data-storage-1-73,.cls-3_data-storage-1-73{fill:#fff;}.cls-4_data-storage-1-73{fill:#f4a28c;}.cls-5_data-storage-1-73{fill:#a5a5a5;}.cls-6_data-storage-1-73,.cls-7_data-storage-1-73{fill:#e6e6e6;}.cls-8_data-storage-1-73{fill:none;opacity:.03;}.cls-7_data-storage-1-73{opacity:.3;}.cls-2_data-storage-1-73{opacity:.44;}.cls-9_data-storage-1-73{fill:#ce8172;opacity:.31;}.cls-10_data-storage-1-73{opacity:.58;}.cls-10_data-storage-1-73,.cls-11_data-storage-1-73,.cls-12_data-storage-1-73{fill:#68e1fd;}.cls-13_data-storage-1-73{fill:#24285b;}.cls-14_data-storage-1-73{fill:#000001;opacity:.08;}.cls-11_data-storage-1-73{opacity:.73;}.cls-3_data-storage-1-73{opacity:.07;}.cls-15_data-storage-1-73{fill:#ffd200;}</style></defs><g id="bg_data-storage-1-73"><g class="cls-8_data-storage-1-73"><ellipse class="cls-14_data-storage-1-73" cx="267.17" cy="447.04" rx="227.7" ry="27.36"/></g><path class="cls-7_data-storage-1-73" d="m131.55,40.73c-45.19,17.39-78.72,61.5-85.33,114.85-5.57,44.96-20.74,142.43,73.26,165.82,150.92,37.55,321.63,1.67,358.08-72.64,36.45-74.31-14.82-187.55-90.21-209.63-53.12-15.56-167.54-32.37-255.8,1.6Z"/><rect class="cls-6_data-storage-1-73" x="372.77" y="394.02" width="97.48" height="26.51"/><rect class="cls-5_data-storage-1-73" x="370.78" y="420.53" width="117.37" height="26.51"/><path class="cls-10_data-storage-1-73 targetColor" d="m446.47,376.9s-13.51-3.69-16.45-16.26c0,0,20.93-4.23,21.53,17.37l-5.08-1.11Z" style="fill: rgb(104, 225, 253);"/><path class="cls-11_data-storage-1-73 targetColor" d="m448.13,375.56s-9.44-14.92-1.13-28.87c0,0,15.92,10.11,8.84,28.91l-7.71-.03Z" style="fill: rgb(104, 225, 253);"/><path class="cls-12_data-storage-1-73 targetColor" d="m450.56,375.57s4.99-15.76,20.06-18.74c0,0,2.83,10.23-9.76,18.79l-10.3-.04Z" style="fill: rgb(104, 225, 253);"/><polygon class="cls-13_data-storage-1-73" points="440.76 375.21 443.5 393.95 460.75 394.02 463.29 375.31 440.76 375.21"/><rect class="cls-6_data-storage-1-73" x="128.31" y="80.72" width="125" height="31.18"/><rect class="cls-6_data-storage-1-73" x="206.15" y="129.89" width="125" height="31.18"/><rect class="cls-6_data-storage-1-73" x="287.19" y="80.72" width="125" height="31.18"/></g><g id="person_data-storage-1-73"><path class="cls-12_data-storage-1-73 targetColor" d="m86.68,293.13s24.97,53.17-6.33,59.04c-31.31,5.87-39.3-29.36-39.3-29.36l-11.32,7.3s12.37,40.67,46.81,40.63c34.45-.04,57.76-11.23,57.1-47.93-.67-36.7-46.95-29.68-46.95-29.68Z" style="fill: rgb(104, 225, 253);"/><path class="cls-2_data-storage-1-73" d="m86.68,293.13s24.97,53.17-6.33,59.04c-31.31,5.87-39.3-29.36-39.3-29.36l-11.32,7.3s12.37,40.67,46.81,40.63c34.45-.04,57.76-11.23,57.1-47.93-.67-36.7-46.95-29.68-46.95-29.68Z"/><path class="cls-12_data-storage-1-73 targetColor" d="m123.68,215.71l-9.93,3.11-14.88,6.2s-31.18,26.79-19.86,55.26c11.32,28.48,62.44,55.17,62.44,55.17l20.23-26.32-38-93.42Z" style="fill: rgb(104, 225, 253);"/><polygon class="cls-6_data-storage-1-73" points="29.13 261.48 35.05 276.32 41.3 261.48 29.13 261.48"/><path class="cls-4_data-storage-1-73" d="m84.03,193.65s1.96,8.69,5.17,13.85c1.3,2.1,4.1,2.75,6.18,1.41,2.58-1.66,5.58-4.64,5.1-9.42l.17-8.22s-.07-5.15-5.95-7.07c-5.88-1.91-12.14,4.21-10.68,9.44Z"/><polygon class="cls-4_data-storage-1-73" points="100.63 192.76 113.75 218.82 98.87 225.02 95.3 203.57 100.63 192.76"/><path class="cls-13_data-storage-1-73" d="m86.25,193.33c1.51-.39,4.22-1.27,7.63-3.09,0,0-1.47,4.54,2.47,7.76,3.95,3.22,7.69.08,7.69.08l-3.61-10.85c-1.89-6.33-9.15-7.8-14.51-4.83-1.89,1.05-3.41,2.85-3.84,4.97-.16.81-.16,1.64-.1,2.46.07.91.24,1.85.75,2.61.87,1.29,2.17,1.25,3.51.9Z"/><path class="cls-4_data-storage-1-73" d="m95.36,198.03s-.98-3.29,1.56-3.82c2.53-.53,3.98,4.21.78,5.71l-2.34-1.9Z"/><path class="cls-4_data-storage-1-73" d="m85.55,199.05l-1.32,4.02c-.33.99.49,1.99,1.53,1.86l3.44-.42-3.65-5.46Z"/><path class="cls-9_data-storage-1-73" d="m95.88,208.3s2.65-1.48,4.02-4.54c0,0,1.4,5.15-2.58,11.95l-1.44-7.41Z"/><path class="cls-4_data-storage-1-73" d="m39.47,323.82s-3.53-12.85-9.75-14.4c-6.22-1.55,2.13,19.32,2.13,19.32l7.62-4.91Z"/><rect class="cls-15_data-storage-1-73" x="30.24" y="295.56" width="14.15" height="23.07" transform="translate(-80.77 21.16) rotate(-15.51)"/><rect class="cls-6_data-storage-1-73" x="9.74" y="230.11" width="50.96" height="35.97"/><path class="cls-15_data-storage-1-73" d="m99.53,185.18s-17.81,6.82-17.59,6.34-2.19-5-1.19-9.44,10.32-7.77,13.54-6.44,5.24,9.54,5.24,9.54Z"/><path class="cls-15_data-storage-1-73" d="m81.94,191.52s-9.63,3.58-9.55,3.33,10.16-7.16,10.49-7.16-.94,3.83-.94,3.83Z"/><path class="cls-13_data-storage-1-73" d="m96.86,196.52c-.17,1.77-.38,3.55-.64,5.31-.23,1.57-.33,3.36-.94,4.84-1.24,3.01-5.07,3.34-7.85,3.53-.83.06-.84,1.36,0,1.3,3.18-.22,7.01-.65,8.76-3.74.88-1.56.99-3.59,1.24-5.32.29-1.97.54-3.95.73-5.93.08-.84-1.22-.83-1.3,0Z"/><rect class="cls-13_data-storage-1-73" x="82.94" y="209.73" width="4.86" height="2.66" rx="1.02" ry="1.02"/><path class="cls-1_data-storage-1-73" d="m52.85,253.04c0-2.7-2.19-4.88-4.88-4.88-.27,0-.53.03-.78.07-1.11-2.06-3.29-3.47-5.8-3.47-.08,0-.16,0-.24.01.15-.61.24-1.24.24-1.89,0-4.31-3.5-7.81-7.81-7.81s-7.81,3.5-7.81,7.81c0,.65.09,1.29.24,1.89-.08,0-.16-.01-.24-.01-3.63,0-6.58,2.95-6.58,6.58s2.95,6.58,6.58,6.58h22.84v-.05c2.39-.31,4.25-2.36,4.25-4.84Z"/><polygon class="cls-13_data-storage-1-73" points="41.47 255.15 35.79 247.09 30.12 255.15 32.97 255.15 32.97 261.41 38.55 261.41 38.55 255.15 41.47 255.15"/></g><g id="server2_data-storage-1-73"><rect class="cls-13_data-storage-1-73" x="271.64" y="200.93" width="149.9" height="247.96"/><rect class="cls-3_data-storage-1-73" x="284" y="213.2" width="124.89" height="39.88" rx="10.36" ry="10.36"/><rect class="cls-12_data-storage-1-73 targetColor" x="306.81" y="186.69" width="76.31" height="14.24" style="fill: rgb(104, 225, 253);"/><circle class="cls-12_data-storage-1-73 targetColor" cx="386.12" cy="233.19" r="10.67" style="fill: rgb(104, 225, 253);"/><rect class="cls-1_data-storage-1-73" x="296.79" y="228.12" width="62.87" height="10.13"/><rect class="cls-3_data-storage-1-73" x="284" y="273.81" width="124.89" height="39.88" rx="10.36" ry="10.36"/><circle class="cls-12_data-storage-1-73 targetColor" cx="386.12" cy="293.8" r="10.67" style="fill: rgb(104, 225, 253);"/><rect class="cls-1_data-storage-1-73" x="296.79" y="288.73" width="62.87" height="10.13"/><rect class="cls-1_data-storage-1-73" x="296.79" y="409.96" width="62.87" height="10.13"/><rect class="cls-1_data-storage-1-73" x="296.79" y="349.3" width="62.87" height="10.13"/><rect class="cls-3_data-storage-1-73" x="284" y="334.42" width="124.89" height="39.88" rx="10.36" ry="10.36"/><circle class="cls-12_data-storage-1-73 targetColor" cx="386.12" cy="354.41" r="10.67" style="fill: rgb(104, 225, 253);"/><rect class="cls-3_data-storage-1-73" x="284" y="395.03" width="124.89" height="39.88" rx="10.36" ry="10.36"/><circle class="cls-12_data-storage-1-73 targetColor" cx="386.12" cy="415.02" r="10.67" style="fill: rgb(104, 225, 253);"/></g><g id="server1_data-storage-1-73"><rect class="cls-13_data-storage-1-73" x="113.86" y="200.93" width="149.9" height="247.96"/><rect class="cls-3_data-storage-1-73" x="126.21" y="213.2" width="124.89" height="39.88" rx="10.36" ry="10.36"/><rect class="cls-12_data-storage-1-73 targetColor" x="149.03" y="186.69" width="76.31" height="14.24" style="fill: rgb(104, 225, 253);"/><circle class="cls-12_data-storage-1-73 targetColor" cx="228.34" cy="233.19" r="10.67" style="fill: rgb(104, 225, 253);"/><rect class="cls-1_data-storage-1-73" x="139.01" y="228.12" width="62.87" height="10.13"/><rect class="cls-3_data-storage-1-73" x="126.21" y="273.81" width="124.89" height="39.88" rx="10.36" ry="10.36"/><circle class="cls-12_data-storage-1-73 targetColor" cx="228.34" cy="293.8" r="10.67" style="fill: rgb(104, 225, 253);"/><rect class="cls-1_data-storage-1-73" x="139.01" y="288.73" width="62.87" height="10.13"/><rect class="cls-1_data-storage-1-73" x="139.01" y="409.96" width="62.87" height="10.13"/><rect class="cls-1_data-storage-1-73" x="139.01" y="349.3" width="62.87" height="10.13"/><rect class="cls-3_data-storage-1-73" x="126.21" y="334.42" width="124.89" height="39.88" rx="10.36" ry="10.36"/><circle class="cls-12_data-storage-1-73 targetColor" cx="228.34" cy="354.41" r="10.67" style="fill: rgb(104, 225, 253);"/><rect class="cls-3_data-storage-1-73" x="126.21" y="395.03" width="124.89" height="39.88" rx="10.36" ry="10.36"/><circle class="cls-12_data-storage-1-73 targetColor" cx="228.34" cy="415.02" r="10.67" style="fill: rgb(104, 225, 253);"/></g></svg>