<svg height="64" viewBox="0 0 16.933 16.933" width="64" xmlns="http://www.w3.org/2000/svg"><path d="M1.587 9.26h11.378c.44 0 .793.354.793.794V12.7c0 .44-.354.794-.793.794H1.587a.792.792 0 0 1-.793-.794v-2.646c0-.44.354-.794.793-.794z" style="opacity:1;fill:#a8c5f7;fill-opacity:1;stroke:none;stroke-width:.529167;stroke-linecap:round;stroke-linejoin:round;stroke-miterlimit:4;stroke-dasharray:none"/><path d="M13.192 9.297a.789.789 0 0 1 .037.228v2.646c0 .44-.354.794-.794.794H1.058a.789.789 0 0 1-.228-.037.79.79 0 0 0 .757.566h11.378c.44 0 .793-.354.793-.794v-2.646a.79.79 0 0 0-.566-.757z" style="opacity:1;fill:#91b8fb;fill-opacity:1;stroke:none;stroke-width:.529167;stroke-linecap:round;stroke-linejoin:round;stroke-miterlimit:4;stroke-dasharray:none"/><path d="M3.44 11.377a.53.53 0 1 1-1.059 0 .53.53 0 0 1 1.059 0z" style="opacity:1;fill:#e2e7fa;fill-opacity:1;stroke:none;stroke-width:.529167;stroke-linecap:round;stroke-linejoin:round;stroke-miterlimit:4;stroke-dasharray:none"/><path d="M1.587 5.027h11.378c.44 0 .793.354.793.794v2.646c0 .44-.354.793-.793.793H1.587a.792.792 0 0 1-.793-.793V5.82c0-.44.354-.794.793-.794z" style="opacity:1;fill:#a8c5f7;fill-opacity:1;stroke:none;stroke-width:.529167;stroke-linecap:round;stroke-linejoin:round;stroke-miterlimit:4;stroke-dasharray:none"/><path d="M13.192 5.064a.789.789 0 0 1 .037.228v2.645c0 .44-.354.794-.794.794H1.058a.79.79 0 0 1-.228-.036.79.79 0 0 0 .757.565h11.378c.44 0 .793-.354.793-.793V5.82a.79.79 0 0 0-.566-.757z" style="opacity:1;fill:#91b8fb;fill-opacity:1;stroke:none;stroke-width:.529167;stroke-linecap:round;stroke-linejoin:round;stroke-miterlimit:4;stroke-dasharray:none"/><path d="M3.44 7.144a.53.53 0 1 1-1.059 0 .53.53 0 0 1 1.059 0z" style="opacity:1;fill:#e2e7fa;fill-opacity:1;stroke:none;stroke-width:.529167;stroke-linecap:round;stroke-linejoin:round;stroke-miterlimit:4;stroke-dasharray:none"/><path d="M1.587.794h11.378c.44 0 .793.354.793.793v2.646c0 .44-.354.794-.793.794H1.587a.792.792 0 0 1-.793-.794V1.588c0-.44.354-.794.793-.794z" style="opacity:1;fill:#a8c5f7;fill-opacity:1;stroke:none;stroke-width:.529167;stroke-linecap:round;stroke-linejoin:round;stroke-miterlimit:4;stroke-dasharray:none"/><path d="M13.192.83a.789.789 0 0 1 .037.228v2.646c0 .44-.354.794-.794.794H1.058A.79.79 0 0 1 .83 4.46a.79.79 0 0 0 .757.566h11.378c.44 0 .793-.354.793-.794V1.588a.79.79 0 0 0-.566-.758z" style="opacity:1;fill:#91b8fb;fill-opacity:1;stroke:none;stroke-width:.529167;stroke-linecap:round;stroke-linejoin:round;stroke-miterlimit:4;stroke-dasharray:none"/><path d="M3.44 2.91a.53.53 0 1 1-1.059 0 .53.53 0 0 1 1.059 0z" style="opacity:1;fill:#e2e7fa;fill-opacity:1;stroke:none;stroke-width:.529167;stroke-linecap:round;stroke-linejoin:round;stroke-miterlimit:4;stroke-dasharray:none"/><path d="m12.093 7.142.122.815a.281.281 0 0 0 .214.233c.387.089.757.242 1.094.454a.28.28 0 0 0 .317-.012l.662-.492.64.639-.488.66a.28.28 0 0 0-.013.315c.211.338.363.71.45 1.098a.282.282 0 0 0 .233.216l.816.122v.903l-.814.12a.28.28 0 0 0-.232.216 3.542 3.542 0 0 1-.455 1.094.28.28 0 0 0 .013.317l.49.662-.64.64-.66-.488a.28.28 0 0 0-.315-.015c-.337.21-.708.365-1.096.452a.282.282 0 0 0-.216.233l-.122.816h-.903l-.122-.814a.281.281 0 0 0-.214-.235 3.544 3.544 0 0 1-1.093-.452.282.282 0 0 0-.318.013l-.662.49-.639-.64.488-.66a.28.28 0 0 0 .012-.315 3.552 3.552 0 0 1-.45-1.098.28.28 0 0 0-.233-.216l-.815-.12v-.905l.813-.12a.282.282 0 0 0 .233-.216c.089-.388.242-.757.454-1.094a.28.28 0 0 0-.01-.317l-.492-.662.639-.64.66.49a.28.28 0 0 0 .315.013c.337-.21.708-.365 1.096-.452a.282.282 0 0 0 .216-.233l.122-.813.903-.002z" style="color:#000;font-style:normal;font-variant:normal;font-weight:400;font-stretch:normal;font-size:medium;line-height:normal;font-family:sans-serif;font-variant-ligatures:normal;font-variant-position:normal;font-variant-caps:normal;font-variant-numeric:normal;font-variant-alternates:normal;font-feature-settings:normal;text-indent:0;text-align:start;text-decoration:none;text-decoration-line:none;text-decoration-style:solid;text-decoration-color:#000;letter-spacing:normal;word-spacing:normal;text-transform:none;writing-mode:lr-tb;direction:ltr;text-orientation:mixed;dominant-baseline:auto;baseline-shift:baseline;text-anchor:start;white-space:normal;shape-padding:0;clip-rule:nonzero;display:inline;overflow:visible;visibility:visible;isolation:auto;mix-blend-mode:normal;color-interpolation:sRGB;color-interpolation-filters:linearRGB;solid-color:#000;solid-opacity:1;vector-effect:none;fill:#e2e7fa;fill-opacity:1;fill-rule:nonzero;stroke:none;stroke-width:.99999994;stroke-linecap:round;stroke-linejoin:round;stroke-miterlimit:4;stroke-dasharray:none;stroke-dashoffset:0;stroke-opacity:1;paint-order:normal;color-rendering:auto;image-rendering:auto;shape-rendering:auto;text-rendering:auto;enable-background:accumulate"/><path d="M10.686 7.144H11.378zm.853 0 .157.99c.394.086.77.233 1.117.43.02.012.04.021.059.033l.227-.16a3.923 3.923 0 0 0-.874-.303l-.156-.99h-.001zM14.255 8l-.303.212.751.711-.63.804c.227.343.391.72.486 1.114l1.05.147h.001v1.306l-.175.025-.873.123c-.096.394-.262.77-.49 1.112l.633.806-.753.711.303.213h.001l.978-.924-.633-.806c.228-.342.394-.718.49-1.112l.873-.123.175-.025v-1.306l-1.051-.147a3.49 3.49 0 0 0-.485-1.114l.63-.804L14.256 8zm-1.38 6.688a3.9 3.9 0 0 1-1.18.458l-.156.993h.529l.157-.993a3.974 3.974 0 0 0 .877-.299z" style="fill:#c4d2f0;fill-opacity:1;stroke:none;stroke-width:.529167;stroke-linecap:butt;stroke-linejoin:round;stroke-miterlimit:4;stroke-dasharray:none;stroke-opacity:1;paint-order:normal"/><path d="M13.23 11.642a1.588 1.588 0 1 1-3.176 0 1.588 1.588 0 0 1 3.175 0z" style="fill:#a8c5f7;fill-opacity:1;stroke:none;stroke-width:.529167;stroke-linecap:round;stroke-linejoin:round;stroke-miterlimit:4;stroke-dasharray:none;stroke-opacity:1;paint-order:normal"/><path d="M44 38c-.085 0-.168.01-.252.014A5.494 5.494 0 0 1 49 43.5a5.5 5.5 0 0 1-5.5 5.5 5.494 5.494 0 0 1-5.486-5.252c-.004.084-.014.167-.014.252a6 6 0 1 0 6-6z" style="fill:#f8f8f8;fill-opacity:1;stroke:none;stroke-width:2.00000119;stroke-linecap:round;stroke-linejoin:round;stroke-miterlimit:4;stroke-dasharray:none;stroke-opacity:1;paint-order:normal" transform="scale(.26458)"/><path d="M11.642 10.054a1.588 1.588 0 0 0-.826 2.941 1.588 1.588 0 0 1 2.18-2.178 1.587 1.587 0 0 0-1.354-.763z" style="fill:#91b8fb;fill-opacity:1;stroke:none;stroke-width:.529167;stroke-linecap:round;stroke-linejoin:round;stroke-miterlimit:4;stroke-dasharray:none;stroke-opacity:1;paint-order:normal"/><path d="M6 3C4.338 3 3 4.338 3 6v10c0 1.662 1.338 3 3 3h2c-1.662 0-3-1.338-3-3V6c0-1.662 1.338-3 3-3H6z" style="opacity:1;fill:#f8f8f8;fill-opacity:1;stroke:none;stroke-width:2.00000119;stroke-linecap:round;stroke-linejoin:round;stroke-miterlimit:4;stroke-dasharray:none" transform="scale(.26458)"/><path d="M1.587 5.027a.792.792 0 0 0-.793.794v2.646c0 .44.354.793.793.793h.53a.792.792 0 0 1-.794-.793V5.82c0-.44.354-.794.794-.794z" style="opacity:1;fill:#f8f8f8;fill-opacity:1;stroke:none;stroke-width:.529167;stroke-linecap:round;stroke-linejoin:round;stroke-miterlimit:4;stroke-dasharray:none"/><path d="M1.587 9.26a.792.792 0 0 0-.793.794V12.7c0 .44.354.794.793.794h.53a.792.792 0 0 1-.794-.794v-2.646c0-.44.354-.794.794-.794z" style="opacity:1;fill:#f8f8f8;fill-opacity:1;stroke:none;stroke-width:.529167;stroke-linecap:round;stroke-linejoin:round;stroke-miterlimit:4;stroke-dasharray:none"/><path d="M33.188 30.764 30.77 33.18l1.858 2.504c.26.353.277.829.04 1.199a13.37 13.37 0 0 0-1.716 4.133 1.064 1.064 0 0 1-.879.816L27 42.285v3.42l3.082.455c.433.065.78.39.877.817a13.427 13.427 0 0 0 1.705 4.15c.23.37.21.84-.049 1.19l-1.842 2.495 2.415 2.415 1.15-.85-1.565-1.565 1.842-2.496c.258-.35.279-.82.05-1.189a13.427 13.427 0 0 1-1.706-4.15 1.062 1.062 0 0 0-.877-.817L29 45.705v-3.42l3.074-.453c.433-.065.782-.39.88-.816a13.37 13.37 0 0 1 1.716-4.133 1.06 1.06 0 0 0-.041-1.2L32.77 33.18l1.565-1.565z" style="color:#000;font-style:normal;font-variant:normal;font-weight:400;font-stretch:normal;font-size:medium;line-height:normal;font-family:sans-serif;font-variant-ligatures:normal;font-variant-position:normal;font-variant-caps:normal;font-variant-numeric:normal;font-variant-alternates:normal;font-feature-settings:normal;text-indent:0;text-align:start;text-decoration:none;text-decoration-line:none;text-decoration-style:solid;text-decoration-color:#000;letter-spacing:normal;word-spacing:normal;text-transform:none;writing-mode:lr-tb;direction:ltr;text-orientation:mixed;dominant-baseline:auto;baseline-shift:baseline;text-anchor:start;white-space:normal;shape-padding:0;clip-rule:nonzero;display:inline;overflow:visible;visibility:visible;isolation:auto;mix-blend-mode:normal;color-interpolation:sRGB;color-interpolation-filters:linearRGB;solid-color:#000;solid-opacity:1;vector-effect:none;fill:#f8f8f8;fill-opacity:1;fill-rule:nonzero;stroke:none;stroke-width:3.77952743;stroke-linecap:round;stroke-linejoin:round;stroke-miterlimit:4;stroke-dasharray:none;stroke-dashoffset:0;stroke-opacity:1;paint-order:normal;color-rendering:auto;image-rendering:auto;shape-rendering:auto;text-rendering:auto;enable-background:accumulate" transform="scale(.26458)"/><path d="M1.588.53C1.006.53.529 1.005.529 1.587v2.644c0 .317.145.6.368.794a1.053 1.053 0 0 0-.368.794v2.647c0 .317.145.6.368.794a1.052 1.052 0 0 0-.368.794v2.644c0 .582.477 1.059 1.059 1.059h6.526l-.327.445a.264.264 0 0 0 .025.344l.924.924a.264.264 0 0 0 .344.027l.666-.494c.263.148.556.275.858.355l.122.82c.02.13.132.225.262.225h1.307c.13 0 .242-.095.262-.224l.122-.823c.282-.071.598-.205.861-.351l.663.492a.265.265 0 0 0 .344-.027l.924-.924a.264.264 0 0 0 .025-.344l-.49-.665c.147-.257.272-.568.354-.859l.82-.122a.265.265 0 0 0 .224-.262v-1.307a.265.265 0 0 0-.224-.262l-.818-.123a4.102 4.102 0 0 0-.355-.861l.49-.664a.264.264 0 0 0-.026-.344l-.924-.924a.264.264 0 0 0-.344-.025l-.18.133V5.82c0-.317-.144-.6-.366-.794.222-.194.366-.477.366-.794V1.588c0-.582-.476-1.059-1.058-1.059zm0 .529h2.644V4.76H1.588a.522.522 0 0 1-.53-.529V1.588c0-.298.232-.53.53-.53zm3.173 0h8.204c.298 0 .53.231.53.529v2.644c0 .298-.232.53-.53.53H4.761ZM2.91 2.117a.796.796 0 0 0-.793.793c0 .435.358.795.793.795a.8.8 0 0 0 .795-.795.798.798 0 0 0-.795-.793zm0 .53c.15 0 .266.114.266.263 0 .15-.117.266-.266.266a.261.261 0 0 1-.264-.266c0-.15.115-.264.264-.264zm3.176 0a.265.265 0 1 0 0 .529h6.084a.265.265 0 1 0 0-.53zM1.588 5.29h2.644v3.705H1.588a.523.523 0 0 1-.53-.53V5.82c0-.297.232-.529.53-.529zm3.173 0h8.204c.298 0 .53.232.53.53v2.437a4.058 4.058 0 0 0-.815-.338l-.123-.817a.265.265 0 0 0-.262-.226c-2.07.002-4.139.002-6.21.002a.265.265 0 1 0 0 .53h4.596l-.077.516a3.773 3.773 0 0 0-.86.35l-.664-.49a.264.264 0 0 0-.344.026l-.924.924a.264.264 0 0 0-.065.262H4.76zM2.91 6.35a.798.798 0 0 0-.793.796c0 .435.358.792.793.792a.798.798 0 0 0 .795-.792.8.8 0 0 0-.795-.796zm0 .53c.15 0 .266.117.266.266 0 .149-.117.263-.266.263a.259.259 0 0 1-.264-.263c0-.15.115-.266.264-.266zm9.156.527.116.768a.265.265 0 0 0 .2.219c.365.084.713.228 1.03.427a.264.264 0 0 0 .299-.011l.623-.463.602.601-.46.621a.264.264 0 0 0-.011.297c.198.318.34.668.424 1.034a.265.265 0 0 0 .219.203l.767.115v.85l-.766.113a.264.264 0 0 0-.218.203 3.333 3.333 0 0 1-.428 1.03.264.264 0 0 0 .012.298l.46.623-.601.601-.621-.458a.264.264 0 0 0-.297-.014 3.34 3.34 0 0 1-1.031.425.265.265 0 0 0-.203.22l-.116.767h-.85l-.114-.766a.264.264 0 0 0-.201-.22 3.336 3.336 0 0 1-1.03-.426.265.265 0 0 0-.299.012l-.623.46-.601-.601.459-.621a.264.264 0 0 0 .012-.297 3.343 3.343 0 0 1-.425-1.033.264.264 0 0 0-.218-.203l-.768-.114v-.851l.766-.113a.265.265 0 0 0 .219-.204A3.33 3.33 0 0 1 8.82 9.87a.264.264 0 0 0-.01-.299l-.462-.623.601-.601.621.46c.088.065.205.07.297.013a3.34 3.34 0 0 1 1.031-.426.265.265 0 0 0 .204-.22l.114-.765.85-.002zM1.588 9.526h2.644v3.703H1.588a.523.523 0 0 1-.53-.53v-2.644c0-.298.232-.53.53-.53zm3.173 0h3.356l.162.22a4.094 4.094 0 0 0-.355.858l-.818.122a.265.265 0 0 0-.227.262v.126h-.793a.265.265 0 1 0 0 .529h.793v.652c0 .131.096.243.227.262l.817.122c.05.183.12.37.2.55H4.762Zm6.88.243c-1.03 0-1.872.841-1.872 1.872 0 1.03.841 1.87 1.872 1.87 1.03 0 1.873-.84 1.873-1.87 0-1.03-.843-1.872-1.873-1.872zm0 .53a1.34 1.34 0 0 1 1.343 1.342c0 .744-.599 1.342-1.343 1.342a1.338 1.338 0 0 1-1.342-1.342c0-.745.597-1.342 1.342-1.342zm-8.731.285a.796.796 0 0 0-.793.793c0 .435.358.793.793.793a.798.798 0 0 0 .795-.793.799.799 0 0 0-.795-.793zm0 .53c.15 0 .266.114.266.263 0 .15-.117.266-.266.266a.26.26 0 0 1-.264-.266c0-.15.115-.263.264-.263z" style="color:#000;font-style:normal;font-variant:normal;font-weight:400;font-stretch:normal;font-size:medium;line-height:normal;font-family:sans-serif;font-variant-ligatures:normal;font-variant-position:normal;font-variant-caps:normal;font-variant-numeric:normal;font-variant-alternates:normal;font-feature-settings:normal;text-indent:0;text-align:start;text-decoration:none;text-decoration-line:none;text-decoration-style:solid;text-decoration-color:#000;letter-spacing:normal;word-spacing:normal;text-transform:none;writing-mode:lr-tb;direction:ltr;text-orientation:mixed;dominant-baseline:auto;baseline-shift:baseline;text-anchor:start;white-space:normal;shape-padding:0;clip-rule:nonzero;display:inline;overflow:visible;visibility:visible;isolation:auto;mix-blend-mode:normal;color-interpolation:sRGB;color-interpolation-filters:linearRGB;solid-color:#000;solid-opacity:1;vector-effect:none;fill:#66a0fe;fill-opacity:1;fill-rule:nonzero;stroke:none;stroke-width:.99999994;stroke-linecap:round;stroke-linejoin:round;stroke-miterlimit:4;stroke-dasharray:none;stroke-dashoffset:0;stroke-opacity:1;paint-order:normal;color-rendering:auto;image-rendering:auto;shape-rendering:auto;text-rendering:auto;enable-background:accumulate"/></svg>