<svg version="1.1" id="Layer_1" xmlns="http://www.w3.org/2000/svg" x="0" y="0" viewBox="0 0 500 500" style="width:188px" xml:space="preserve" data-imageid="smartphone-data-82" class="illustrations_image"><style>.st4_smartphone-data-82{fill:#68e1fd}.st6_smartphone-data-82{fill:#56403d}.st7_smartphone-data-82{fill:#ffa197}.st8_smartphone-data-82{fill:#f2f2f2}.st9_smartphone-data-82{fill:#ff6753}.st10_smartphone-data-82{fill:#fdd400}.st12_smartphone-data-82{fill:#844308}</style><g id="background_smartphone-data-82"><path d="M242.9 415.5 16.6 281.8c-7.2-4-13.4-10.7-6.4-15l227.1-130.9c3.4-2.1 8.6-3.5 12.1-1.5l237.5 137.8c7.2 4.2 8.5 15.9 1.3 20l-215.5 123c-9.2 5.4-20.5 5.5-29.8.3z" style="fill:#007f68"/><linearGradient id="SVGID_1_-smartphone-data-82" gradientUnits="userSpaceOnUse" x1="113.64" y1="201.839" x2="141.87" y2="221.529" gradientTransform="matrix(1 0 0 -1 0 502)"><stop offset="0" style="stop-color:#007f68"/><stop offset="1" style="stop-color:#00674c"/></linearGradient><path d="M178.1 262.2s.9 2.3-2.5 4.1-61.2 42-61.2 42l-14.3-8.3 70.3-39.4 7.7 1.6z" style="fill:url(#SVGID_1_)"/><linearGradient id="SVGID_00000129198626946954351510000006753056285437539239_-smartphone-data-82" gradientUnits="userSpaceOnUse" x1="151.009" y1="169.483" x2="276.123" y2="261.754" gradientTransform="matrix(1 0 0 -1 0 502)"><stop offset="0" style="stop-color:#007f68"/><stop offset="1" style="stop-color:#00674c"/></linearGradient><path style="fill:url(#SVGID_00000129198626946954351510000006753056285437539239_)" d="M278.6 243.7s.5 15.3-4.5 19.8S171 336.7 171 336.7l-30.4-18.3 138-74.7z"/><linearGradient id="SVGID_00000175317906978421176980000000742064689589439880_-smartphone-data-82" gradientUnits="userSpaceOnUse" x1="238.4" y1="108.284" x2="331.077" y2="176.629" gradientTransform="matrix(1 0 0 -1 0 502)"><stop offset="0" style="stop-color:#007f68"/><stop offset="1" style="stop-color:#00674c"/></linearGradient><path style="fill:url(#SVGID_00000175317906978421176980000000742064689589439880_)" d="m341.7 339.8-71.1 62c.2 2-47.4-28.6-47.4-28.6l89.4-44.1"/></g><g id="phone_smartphone-data-82"><path class="st4_smartphone-data-82 targetColor" d="M270.8 57.3C252.4 68.2 207 95.1 193.4 103c-2.4 1.4-3.8 3.9-3.8 6.6v186.5c-.3 3.8 4 7.3 7.5 5.3l76.4-43.5c3.1-1.8 5-4.2 5-7.8V61.8c0-2.9-2.3-5.2-5.2-5.1-.8-.1-1.7.2-2.5.6z" style="fill:#68e1fd"/><path d="m278.1 59.5-24.3 14v5.2c0 .9-.5 1.7-1.2 2.2L234 91.7c-.8.5-1.8.2-2.2-.6-.1-.2-.2-.5-.2-.8v-3.8L196.7 107c-.7.4-1.1 1.1-1.1 1.9v186.4c0 .8.7 1.5 1.5 1.5.3 0 .5-.1.8-.2l80.9-46.9c.3 2.9-1.1 5.8-3.6 7.4-4.2 2.7-77.9 44.4-77.9 44.4s-5.8 2.6-7.5-4.3V109.6c0-2.5 1.2-4.8 3.2-6.2 3.4-2.4 78-46.1 78-46.1s4.5-2.5 7.1 2.2z" style="fill:#124577"/><path class="st6_smartphone-data-82" d="M235.2 140.6c4.1-4.2 8.6-6.5 12.8-6.5.8 0 1.6.1 2.3.2 3.2.8 6 2.7 7.9 5.4 1.8-2.6 3.9-5 6-7.3-3.1-3.6-7.3-6.1-11.9-7.2-8-1.7-16.4 1.4-23.6 8.8-2.1 2.2-4.1 4.6-5.7 7.2 2.6 1.6 5.2 3.3 7.8 5 1.2-1.8 2.7-3.8 4.4-5.6z"/><path class="st7_smartphone-data-82" d="M235.3 205.9c-4.4-1.3-8.1-5.4-10.4-11.6-2.7-7.3-3.1-16.5-1.2-25.8a50.8 50.8 0 0 1 5.9-15.6c-2.6-1.7-5.1-3.4-7.8-5-3.4 5.8-5.8 12.1-7.2 18.7-2.3 11-1.8 22 1.6 30.9s9 14.9 16.1 17.1c.9-2.9 1.8-5.8 3-8.7z"/><path class="st8_smartphone-data-82" d="M270.3 147.8c-1.2-3.2-2.8-6.2-4.8-8.9-2.2 2.4-4.2 4.9-6 7.5.9 1.5 1.6 3 2.2 4.6 2.7 7.3 3.1 16.5 1.2 25.8s-6.1 17.5-11.5 23.1c-4.6 4.7-9.5 6.9-14 6.4-1.2 2.9-2.1 5.9-3.1 8.9h.1c1.4.3 2.9.4 4.3.4 6.7 0 13.4-3.2 19.3-9.3 6.7-6.8 11.6-16.7 13.9-27.7s1.7-21.9-1.6-30.8z"/><ellipse transform="rotate(-83.65 248.17 176.175)" class="st8_smartphone-data-82" cx="248.2" cy="176.2" rx="10.5" ry="5.8"/><path class="st8_smartphone-data-82" d="M271.4 220.9 218 250.7c-.9.6-1.1 1.7-.5 2.6.5.8 1.5 1 2.3.7l53.4-29.8c.8-.6 1-1.7.5-2.6-.6-.8-1.5-1.1-2.3-.7zM270.5 213.9l-53.4 29.8c-2.1 1.2-.3 4.4 1.8 3.2l53.4-29.8c.9-.5 1.2-1.6.7-2.5-.4-.9-1.6-1.2-2.5-.7z"/></g><g id="character_smartphone-data-82"><path class="st9_smartphone-data-82" d="M338.2 311.8c.7 1.6 3.6 23.6 3.5 28s-6.7 4.7-8.7 4.6-5.9-2-8.4-2.1-16.3-2.7-15.9-6.3 2.8-7.2 5.9-7.4 11.5.4 11.5.4l-.8-20"/><path class="st4_smartphone-data-82 targetColor" d="M335.4 207.7c0-.3 3.4 16.2 3.7 30.1.2 10.4 3.4 88.2 3.4 88.2s-6 3.6-22.8-1.2c-2.4-.7-4.7-72.3-4.7-72.3l2.1-35" style="fill:#68e1fd"/><path class="st6_smartphone-data-82" d="M312.6 329c3.9 4.3 9.4 6.9 15.2 7 3.1 0 6.2-.3 9.3-.9 1.5-.2 2.9-.6 4.2-1.4.2 2 .3 4.1.3 6.1-.2 4.3-6.8 4.7-8.8 4.5s-5.9-2-8.4-2.1-16.2-2.8-15.8-6.5c.4-2.8 1.9-5.5 4-6.7z"/><path class="st9_smartphone-data-82" d="M279.6 161.1s-3.1-4.5-3.1-6.8 2.7.7 2.7.7l-.4-5.6s2.1 3.3 3.1 4.8 4.4 8.7 5 10 6.1 4.8 6.1 4.8-1.6 5.1-3.2 5.5-9.8-7-9.8-7l-.4-6.4z"/><path class="st10_smartphone-data-82" d="M289.8 163s-6.1 5.4-5 11.5c0 0 7.6 15.2 15.9 17.7s13-13.8 10.7-16.2-21.6-13-21.6-13z"/><path d="M289.8 163s-6.1 5.4-5 11.5c0 0 7.6 15.2 15.9 17.7s13-13.8 10.7-16.2-21.6-13-21.6-13z" style="opacity:.3;fill:#844308;enable-background:new"/><path class="st9_smartphone-data-82" d="M270.6 178.7s-2.8-2.6-2.4-3.4 1.8-8.1 1.1-9.6c-1.1-2.6-3.8 3.2-3.8 3.2l-.8-10.2s-3 3.2-2.8 5.1-.1 14 0 14.9 2.7 7.5 2.7 7.5M304.2 337c.6 1.6 2.5 23.8 2 28.1s-7 4.4-8.9 4.1-5.8-2.3-8.3-2.5-16.1-3.5-15.5-7.1 3.1-7 6.2-7 11.5.9 11.5.9l.2-20"/><path class="st4_smartphone-data-82 targetColor" d="M303.7 215.5c-7 20.5-11.9 41.7-14.6 63.2-1 8.5-4 65.6-4 65.6s10.6 7.3 23.4 3.2c0 0 9.6-69.7 10-71.1 4.9-19.8 5.4-32.1 6.6-62" style="fill:#68e1fd"/><path class="st10_smartphone-data-82" d="M302.5 193.8c-.6-8.3-3.6-12.6-1.7-20.6 6-6.5 17.2-14.3 18.4-14.6l6.3 1.5c5.5 1.3 9.4 6.1 9.5 11.7.3 12.8.8 34.3.3 36-.5 1.5-13.1 12.5-31.6 7.8-.5-7.4-.7-14.6-1.2-21.8z"/><path class="st9_smartphone-data-82" d="M305.8 141.4s-2.6 19.2 4.5 20.9 14.9-6.8 15.2-10.8-10.3-17.1-19.7-10.1z"/><path class="st12_smartphone-data-82" d="M302 145.5c-1.1-.1-1.9-1-1.8-2.1v-.2c.7-4 3.5-12.1 13.6-12.3 7.8-.1 12.6 3.3 14.9 8.5l.1.3.6 1.7c.7 2.5 1 5.1.7 7.7-.3 7.3-5.9 11.4-12.9 12.3 0 0 2.9-10.8-1.8-9.1s-8.6 1.2-7.1-6.3l-6.3-.5z"/><path class="st12_smartphone-data-82" d="m321.2 140.4-.7.7s0-.4.7-.7zM323.7 137.6c1.4-.4 17.2-6.4 21.8 1.2s.6 19.2 6.2 20.8 21.7.7 23.2 7.9c1.5 7-5.9 11-4.1 14.2 4.4 2.8 7.9 6.4 5.9 12-1.1 2.9-3.3 5.3-6 6.9-6.6 3.9-15.7.9-21.1-3.7-4.8-4.1-4.4-8.9-2.5-14.3 1.4-4.2 3.9-9.3-.8-12.3-7-4.6-15 .7-17.4-4.6s7.8-23.3-.4-24.9c-4.5-.9-6.5-.6-7.4-.2l2.6-3z"/><path class="st10_smartphone-data-82" d="M263.8 185.8c1-3.4 3.5-6.1 6.8-7.4 6 5.7 13.4 11.9 15.8 10.9 3.5-1.4 10.6-18 20.7-18.8s9.8 13.1 9.8 13.1-17.6 27.1-27.1 27.6c-7.7.4-21.6-13.1-27.1-19.6.2-2 .5-3.9 1.1-5.8z"/><path class="st6_smartphone-data-82" d="M273.4 359.6c.3-2.5 1.7-4.8 3.8-6.3 2.4 3.4 5.9 5.9 10 6.8 6.3 1.4 13 .8 19-1.5.1 2.2.2 4.3.1 6.5-.4 4.3-7 4.4-8.9 4.1s-5.8-2.3-8.3-2.5-16.3-3.5-15.7-7.1z"/></g><g id="data_smartphone-data-82"><path class="st10_smartphone-data-82" d="m137 287.6 38.6-21.2c1.5-.8 2.5-2.4 2.5-4.1v-70.8c0-2.6-2.1-4.7-4.7-4.7-.8 0-1.6.2-2.4.6l-38.6 22.3c-1.5.8-2.4 2.4-2.4 4.1v69.7c0 2.6 2.1 4.7 4.7 4.7.8-.1 1.6-.3 2.3-.6z"/><path class="st6_smartphone-data-82" d="M139.4 238.2v17c0 4.9 7.7 4.9 7.7 0v-17c-.1-4.9-7.7-4.9-7.7 0z"/><path class="st7_smartphone-data-82" d="M149.8 220.8v27.4c0 4.9 7.6 4.9 7.6 0v-27.4c0-4.9-7.6-4.9-7.6 0z"/><path class="st8_smartphone-data-82" d="M162.1 201v42c0 4.9 7.7 4.9 7.7 0v-42c0-4.9-7.7-5-7.7 0zM152.6 259.9l-9.5 5c-1.4.7-.2 2.7 1.2 2l9.5-5c1.3-.7.1-2.7-1.2-2zM169.2 258.7c-8.8 4.7-17.7 9.3-26.7 13.6-1.4.7-.2 2.7 1.2 2 9-4.4 17.9-8.9 26.7-13.6 1.3-.7.1-2.7-1.2-2z"/><path class="st7_smartphone-data-82" d="m163.2 177.8 40.8-22.4c1.6-.9 2.6-2.6 2.6-4.4V76.4c0-2.8-2.3-5-5-5-.9 0-1.7.2-2.5.7l-40.8 23.5c-1.5.9-2.5 2.5-2.5 4.3v73.6c0 2.8 2.3 5 5 5 .9-.1 1.7-.3 2.4-.7z"/><path class="st6_smartphone-data-82" d="M165.7 125.8v17.9c0 5.2 8.1 5.2 8.1 0v-17.9c0-5.2-8.1-5.2-8.1 0z"/><path class="st4_smartphone-data-82 targetColor" d="M176.7 107.4v28.9c0 5.2 8.1 5.2 8.1 0v-28.9c0-5.2-8.1-5.2-8.1 0z" style="fill:#68e1fd"/><path class="st8_smartphone-data-82" d="M189.7 86.5v44.3c0 5.2 8.1 5.2 8.1 0V86.5c0-5.2-8.1-5.2-8.1 0zM179.6 148.7l-10 5.2c-1.4.7-.2 2.9 1.2 2.1l10-5.2c1.5-.7.3-2.9-1.2-2.1zM197.1 147.4c-9.3 5-18.7 9.8-28.1 14.4-1.4.7-.2 2.8 1.3 2.1 9.5-4.6 18.8-9.4 28.1-14.4 1.4-.7.1-2.9-1.3-2.1z"/></g></svg>